<svg xmlns="http://www.w3.org/2000/svg" height="768" preserveAspectRatio="none" style="display: block;" version="1.1" viewBox="0 0 2048 1170" width="1344">
<path d="M 0 0 L 2048 0 L 2048 1170 L 0 1170 L 0 0 z" fill="rgb(18,184,134)" transform="translate(0,0)"></path>
<path d="M 745.435 491.181 C 745.854 457.373 742.864 406.709 767.975 382.202 C 774.743 375.559 782.773 370.338 791.591 366.847 C 801.893 362.768 817.158 360.702 828.431 358.436 C 842.454 355.586 856.292 351.889 869.868 347.366 C 899.605 336.98 927.812 322.645 953.731 304.744 C 976.903 288.474 995.933 259.93 1024.92 259.901 C 1049.06 259.877 1063.12 278.249 1079.71 292.627 C 1117.57 325.328 1165.28 345.233 1213.39 357.35 C 1227.57 360.92 1243.81 361.997 1257.23 367.272 C 1266.44 370.938 1274.73 376.6 1281.49 383.85 C 1299.83 403.241 1299.2 423.567 1301.67 448.087 C 1309.11 522.23 1294.31 590.871 1269.04 659.965 C 1257.03 653.141 1241.97 652.251 1226.37 641.322 C 1249.24 582.778 1259.34 523.321 1255.05 460.51 C 1253.95 444.446 1256.03 426.37 1244.07 414.039 C 1228.11 408.252 1201.26 403.784 1183.08 398.639 C 1115.97 379.651 1074.17 353.149 1024.05 306.735 C 989.643 340.847 957.764 362.518 912.775 381.817 C 890.905 391.337 868.204 398.822 844.961 404.178 C 833.465 406.872 804.434 409.939 799.549 418.504 C 791.965 431.799 792.951 476.273 792.879 491.243 L 745.435 491.181 z" fill="rgb(255,255,255)" transform="translate(0,0)"></path>
<path d="M 827.964 660.346 C 828.765 662.267 829.589 664.178 830.435 666.079 C 864.825 743.349 944.781 834.512 1023.91 864.994 C 1040.29 859.755 1067.52 842.256 1081.98 832.239 C 1093.3 839.736 1113.88 852.542 1123.78 860.406 C 1117.89 864.94 1111.59 869.092 1105.62 873.317 C 1038.65 920.763 1015.69 923.105 946.999 876.817 C 872.997 826.282 815.34 755.26 781.09 672.452 C 796.767 668.624 812.393 664.589 827.964 660.346 z" fill="rgb(255,255,255)" transform="translate(0,0)"></path>
<path d="M 1121.28 482.562 C 1124.81 483.471 1151.06 510.456 1156.6 515.877 L 995.541 676.905 C 973.064 655.804 949.229 630.698 926.499 608.716 C 915.141 597.824 903.178 584.897 891.906 573.543 C 903.27 562.634 913.974 551.35 925.555 540.439 C 947.781 562.425 972.996 586.345 994.119 608.992 C 1007.63 597.715 1024.13 579.969 1036.87 567.461 C 1065.29 539.574 1092.84 510.454 1121.28 482.562 z" fill="rgb(255,255,255)" transform="translate(0,0)"></path>
<path d="M 1169.69 743.925 C 1195.31 706.705 1209.37 683.481 1226.37 641.322 C 1241.97 652.251 1257.03 653.141 1269.04 659.965 C 1251.88 704.778 1237.85 732.133 1210.02 771.192 C 1195.41 762.019 1183.38 754.328 1169.69 743.925 z" fill="rgb(195,242,226)" transform="translate(0,0)"></path>
<path d="M 747.548 532.232 L 794.746 532.243 C 796.595 555.426 802.833 580.481 808.266 603.093 C 809.453 608.03 811.419 611.76 811.985 617.03 C 810.085 619.054 806.185 619.381 803.212 620.002 C 790.793 622.979 778.312 625.691 765.777 628.135 C 755.989 592.457 751.552 569.04 747.548 532.232 z" fill="rgb(195,242,226)" transform="translate(0,0)"></path>
<path d="M 1081.98 832.239 C 1106.81 814.287 1125.89 796.57 1146.78 774.429 C 1160.2 782.94 1173.03 791.744 1186.29 800.401 C 1166.74 820.709 1145.77 842.585 1123.78 860.406 C 1113.88 852.542 1093.3 839.736 1081.98 832.239 z" fill="rgb(195,242,226)" transform="translate(0,0)"></path>
<metadata><recraft-signature>{"signed_by": "recraft", "signature_b64": "rHEcD5e1EzWjQ05DyCN43eejxt8eJHeRIQQIfdhBy4zeIB2rMs2cXKBMNZODVE31ulU9bA66QUV6gisqyizkDg==", "signing_algo": "Ed25519", "generation_timestamp": 1783405108, "identifier": "830f83d4-a80f-4dbf-89eb-e8bac9dcd4c4"}</recraft-signature></metadata></svg>