<svg xmlns="http://www.w3.org/2000/svg" height="768" preserveAspectRatio="none" style="display: block;" version="1.1" viewBox="0 0 2048 1170" width="1344">
<path d="M 0 0 L 2048 0 L 2048 1170 L 0 1170 L 0 0 z" fill="rgb(245,159,0)" transform="translate(0,0)"></path>
<path d="M 907.098 273.027 C 907.487 254.597 904.537 238.141 918.498 224.768 C 922.974 220.419 928.631 217.484 934.765 216.331 C 942.511 214.944 980.276 215.792 989.906 215.84 L 1095.56 215.69 C 1096.41 245.669 1116.16 259.067 1143.51 245.025 C 1143.65 254.11 1144 263.984 1143.51 272.987 C 1143.18 276.273 1142.69 278.163 1143.82 281.257 C 1143.94 291.962 1143.91 302.599 1144.11 313.408 C 1144.34 325.77 1143.49 338.295 1134.19 347.606 C 1125.41 356.402 1114.79 358.818 1102.73 358.52 C 1078.75 358.464 1054.94 357.893 1031.06 358.033 L 1031.02 426.651 C 1031.01 434.503 1031.34 455.215 1030.25 462.109 C 1029.19 458.114 1029.94 446.232 1029.73 442.357 C 1029.05 430.182 1031.74 364.673 1029.42 358.047 C 1026.7 356.905 1025.99 357.303 1022.93 357.833 C 1016.13 358.61 998.286 358.676 991.456 358.107 C 969.868 356.305 933.049 364.607 916.971 347.62 C 903.382 333.264 907.308 300.186 907.591 281.228 C 907.794 277.393 907.788 276.782 907.098 273.027 z" fill="rgb(255,233,191)" transform="translate(0,0)"></path>
<path d="M 926.853 491.042 C 927.839 490.967 928.827 490.919 929.815 490.899 C 958.68 490.206 939.567 539.29 916.157 510.69 C 887.06 520.321 864.44 550.694 860.684 580.645 C 859.308 591.615 859.465 602.685 859.414 613.721 L 859.279 658.424 C 879.605 658.216 925.561 651.301 928.706 680.411 C 936.347 751.139 916.892 745.528 860.227 744.803 C 860.305 791.619 866.539 835.11 831.643 870.949 C 806.622 896.646 784.548 900.186 750.14 900.979 C 746.257 911.182 736.732 917.655 727.408 908.133 C 716.119 896.606 724.267 879.953 741.183 883.165 C 745.555 883.996 748.39 889.047 750.521 892.525 C 785.668 892.35 813.121 884.738 834.717 855.184 C 845.869 839.924 850.578 825.693 852.282 807.026 C 853.215 787.57 852.588 764.668 852.502 744.953 C 837.739 744.891 822.822 745.238 808.169 745.237 C 794.247 745.236 783.005 741.301 777.485 727.675 C 774.303 719.82 774.832 713.368 774.955 705.126 C 741.931 704.95 712.6 702.087 686.43 726.807 C 665.61 746.475 660.477 770.391 659.474 797.554 C 667.011 801.499 672.089 806.416 669.954 815.459 C 663.881 841.176 622.224 814.901 652.811 797.627 C 652.763 794.807 652.742 791.986 652.748 789.165 C 652.84 763.589 661.604 740.109 680.003 722.246 C 709.74 693.374 737.013 696.807 774.836 696.992 L 774.814 692.413 C 774.808 647.409 818.878 657.837 851.66 658.175 C 851.571 590.06 842.004 533.84 915.874 501.723 C 919.212 495.65 920.706 494.126 926.853 491.042 z" fill="rgb(255,255,255)" transform="translate(0,0)"></path>
<path d="M 796.94 667.096 C 814.382 666.051 901.657 665.247 912.186 669.62 C 915.733 671.093 918.428 674.557 919.873 678.038 C 923.007 685.591 923.233 717.96 919.806 725.734 C 917.274 731.476 912.888 733.867 907.261 736.022 C 892.159 737.716 804.799 737.914 793.513 734.048 C 789.4 732.639 786.645 729.583 784.867 725.674 C 781.274 717.773 781.531 685.958 784.56 678.039 C 786.829 672.105 791.361 669.506 796.94 667.096 z" fill="rgb(245,159,0)" transform="translate(0,0)"></path>
<path d="M 649.129 490.152 C 654.463 489.766 659.097 489.702 663.401 493.535 C 666.39 496.186 668.139 499.963 668.228 503.957 C 668.338 507.805 666.893 511.536 664.218 514.304 C 653.909 524.793 643.488 515.401 639.139 506.914 C 636.493 501.749 620.824 501.151 614.87 500.955 C 587.546 500.057 560.124 510.659 540.728 530.049 C 503.551 566.258 509.769 610.192 509.243 658.082 C 549.151 657.679 584.608 647.423 583.189 699.366 C 582.139 737.783 578.256 745.165 539.5 744.843 L 486.539 744.955 C 439.102 745.036 428.83 743.942 430.342 691.883 C 431.59 648.907 469.084 657.889 501.783 658.303 C 501.794 635.715 500.449 600.065 505.137 579.075 C 511.455 550.509 528.892 525.636 553.591 509.957 C 580.74 492.727 609.865 489.794 640.709 496.671 C 643.86 493.325 645.201 492.592 649.129 490.152 z" fill="rgb(255,255,255)" transform="translate(0,0)"></path>
<path d="M 451.94 667.214 C 462.476 666.128 482.372 667.09 494.098 666.881 C 514.132 666.974 534.422 666.387 554.424 666.902 C 573.828 667.401 574.655 681.924 574.53 697.523 C 574.459 706.443 574.408 714.876 573.863 723.719 C 569.686 730.572 568.11 731.998 560.975 735.711 C 546.828 737.317 461.287 737.495 450.667 734.286 C 446.363 732.985 443.48 730.608 441.398 726.646 C 437.415 719.065 437.437 688.183 439.99 679.913 C 442.039 673.277 445.988 670.324 451.94 667.214 z" fill="rgb(245,159,0)" transform="translate(0,0)"></path>
<path d="M 1489.56 658.223 C 1490.85 658.126 1492.13 658.054 1493.42 658.005 C 1525.3 657.055 1561.1 657.784 1593.11 658.939 C 1604.62 659.876 1615.62 669.619 1616.73 681.091 C 1623.33 749.279 1606.38 745.588 1549.13 744.76 C 1549.18 788.415 1555.49 834.35 1525.18 868.187 C 1504.54 891.219 1483.94 900.588 1453.87 902.941 L 1450.64 903.167 C 1437.7 917.527 1421.19 915.519 1422.19 895.008 C 1422.75 883.702 1440.6 876.198 1450.05 894.287 C 1489.63 894.03 1520.98 872.657 1535.75 835.432 C 1542.09 819.478 1541.33 803.885 1541.36 787.031 L 1541.43 744.784 C 1524.08 744.597 1493.39 747.585 1478.36 740.636 C 1473.17 737.898 1467.38 729.037 1466.75 723.383 C 1463.93 698.084 1458.42 666.036 1489.56 658.223 z" fill="rgb(255,255,255)" transform="translate(0,0)"></path>
<path d="M 1487.96 667.201 C 1502.81 665.591 1589.95 665.726 1600.1 669.711 C 1603.35 670.985 1605.83 674.669 1607.12 677.787 C 1610.27 685.38 1610.64 717.736 1607.43 725.325 C 1604.93 731.264 1600.01 733.805 1594.32 736.108 C 1577.95 737.642 1498.82 738.045 1486.34 734.442 C 1482.26 733.265 1478.83 731.941 1476.75 727.961 C 1472.53 719.9 1472.38 688.657 1475.23 679.843 C 1477.33 673.353 1482.14 670.17 1487.96 667.201 z" fill="rgb(245,159,0)" transform="translate(0,0)"></path>
<path d="M 1022.93 357.833 C 1025.99 357.303 1026.7 356.905 1029.42 358.047 C 1031.74 364.673 1029.05 430.182 1029.73 442.357 C 1029.94 446.232 1029.19 458.114 1030.25 462.109 C 1047.08 462.172 1080.69 458.499 1092.18 468.718 C 1097.84 473.56 1101.48 482.049 1101.51 489.328 C 1101.55 516.4 1108.13 549.013 1069.51 549.077 C 1037.15 548.396 1004.38 551.011 972.101 548.452 C 950.826 546.766 951.815 521.223 950.704 507.749 C 946.127 452.267 978.33 461.649 1023.08 462.142 L 1022.93 357.833 z" fill="rgb(255,255,255)" transform="translate(0,0)"></path>
<path d="M 977.007 470.331 C 1008.3 469.287 1041.79 471.551 1073.2 471.207 C 1097.35 471.645 1093.09 490.952 1093.35 507.899 C 1093.61 523.983 1094.91 537 1076.03 540.256 C 1044.2 540.941 1011.24 540.375 979.436 540.589 C 955.728 539.443 958.78 518.707 958.838 501.768 C 958.893 485.499 958.009 473.809 977.007 470.331 z" fill="rgb(245,159,0)" transform="translate(0,0)"></path>
<path d="M 1202.12 744.987 C 1186.18 744.897 1151.04 749.03 1138.99 738.119 C 1123.99 726.078 1125.6 677.107 1138.67 665.092 C 1151.98 652.864 1202.74 660.233 1221.26 658.225 C 1227.31 657.569 1250.4 658.092 1256 659.257 C 1279.05 664.061 1278.42 691.312 1278.03 709.596 C 1278.47 752.562 1240.59 745.515 1210.09 744.858 C 1207.37 743.776 1207 743.628 1204.1 743.949 C 1200.78 749.339 1205.68 807.317 1202.35 812.741 C 1201.27 801.79 1202.14 757.992 1202.12 744.987 z" fill="rgb(255,233,191)" transform="translate(0,0)"></path>
<path d="M 1308.33 444.34 C 1341.71 439.397 1372.74 462.567 1377.47 495.978 C 1382.21 529.388 1358.85 560.27 1325.41 564.799 C 1292.26 569.289 1261.71 546.175 1257.01 513.056 C 1252.32 479.937 1275.24 449.241 1308.33 444.34 z" fill="rgb(255,255,255)" transform="translate(0,0)"></path>
<path d="M 1315.97 452.187 C 1344.88 451.509 1368.87 474.383 1369.56 503.29 C 1370.26 532.198 1347.4 556.201 1318.49 556.915 C 1289.56 557.631 1265.53 534.746 1264.84 505.814 C 1264.14 476.881 1287.04 452.866 1315.97 452.187 z" fill="rgb(245,159,0)" transform="translate(0,0)"></path>
<path d="M 1021.42 835.911 C 1054.76 835.134 1082.51 861.353 1083.62 894.686 C 1084.74 928.019 1058.8 956.03 1025.48 957.479 C 1003.62 958.429 982.943 947.569 971.317 929.039 C 959.691 910.509 958.911 887.163 969.275 867.899 C 979.64 848.635 999.551 836.42 1021.42 835.911 z" fill="rgb(255,255,255)" transform="translate(0,0)"></path>
<path d="M 1014.89 844.936 C 1043.54 840.551 1070.31 860.274 1074.62 888.945 C 1078.92 917.615 1059.12 944.33 1030.44 948.552 C 1001.87 952.757 975.288 933.054 971.001 904.499 C 966.715 875.943 986.342 849.303 1014.89 844.936 z" fill="rgb(245,159,0)" transform="translate(0,0)"></path>
<path d="M 646.572 835.997 C 680.076 831.81 710.574 855.726 714.498 889.262 C 718.421 922.798 694.266 953.107 660.7 956.766 C 627.506 960.384 597.605 936.555 593.726 903.39 C 589.846 870.225 613.439 840.138 646.572 835.997 z" fill="rgb(255,255,255)" transform="translate(0,0)"></path>
<path d="M 649.787 843.924 C 678.699 841.534 704.075 863.031 706.472 891.941 C 708.869 920.852 687.38 946.234 658.469 948.638 C 629.549 951.044 604.156 929.544 601.758 900.623 C 599.36 871.702 620.866 846.315 649.787 843.924 z" fill="rgb(245,159,0)" transform="translate(0,0)"></path>
<path d="M 1341.82 836.921 C 1374.82 830.957 1406.4 852.876 1412.36 885.875 C 1418.32 918.873 1396.39 950.45 1363.39 956.398 C 1330.4 962.344 1298.84 940.426 1292.88 907.44 C 1286.93 874.453 1308.84 842.884 1341.82 836.921 z" fill="rgb(255,255,255)" transform="translate(0,0)"></path>
<path d="M 1345.81 844.72 C 1374.52 840.837 1400.92 861.026 1404.68 889.749 C 1408.45 918.472 1388.16 944.788 1359.42 948.442 C 1330.84 952.076 1304.71 931.921 1300.96 903.359 C 1297.21 874.797 1317.26 848.582 1345.81 844.72 z" fill="rgb(245,159,0)" transform="translate(0,0)"></path>
<path d="M 731.093 444.127 C 764.242 442.262 792.733 467.392 795.021 500.515 C 797.309 533.638 772.545 562.447 739.454 565.158 C 717.669 566.942 696.609 556.869 684.324 538.79 C 672.04 520.711 670.431 497.421 680.113 477.825 C 689.794 458.228 709.269 445.355 731.093 444.127 z" fill="rgb(255,255,255)" transform="translate(0,0)"></path>
<path d="M 725.657 453.077 C 754.116 448.178 781.158 467.275 786.061 495.734 C 790.963 524.192 771.87 551.237 743.412 556.144 C 714.949 561.051 687.897 541.953 682.993 513.489 C 678.09 485.025 697.192 457.976 725.657 453.077 z" fill="rgb(245,159,0)" transform="translate(0,0)"></path>
<path d="M 1391.08 490.128 C 1392.14 490.02 1393.2 489.933 1394.26 489.867 C 1402.52 489.373 1405.06 491.457 1411 496.719 C 1421.1 494.341 1433.43 492.91 1443.79 493.315 C 1472.47 494.496 1499.53 506.891 1519.15 527.83 C 1544.61 555.505 1549.63 585.685 1548.24 621.528 C 1552.76 625.248 1556.5 628.894 1556.7 635.174 C 1556.85 639.485 1555.13 643.651 1551.97 646.591 C 1549.14 649.256 1545.3 650.581 1541.42 650.234 C 1536.2 649.722 1533.52 647.152 1530.5 643.324 C 1527.44 631.302 1529.79 626.774 1540.37 620.66 C 1540.64 606.457 1541.17 592.561 1537.82 578.625 C 1531.53 552.743 1515.27 530.393 1492.58 516.436 C 1467.27 500.97 1441.14 497.653 1412.54 504.591 C 1397.72 536.188 1369.73 506.814 1391.08 490.128 z" fill="rgb(255,255,255)" transform="translate(0,0)"></path>
<path d="M 1143.51 272.987 C 1197.65 272.851 1246.67 265.529 1288.37 306.975 C 1312.52 330.968 1323.18 361.081 1323.22 394.84 C 1323.22 398.847 1323.19 402.855 1323.11 406.862 C 1327.77 410.123 1331.26 413.126 1332.29 419.041 C 1335.31 436.277 1306.65 442.736 1305.03 423.258 C 1304.29 414.386 1307.68 410.66 1315.32 406.708 C 1316.38 369.46 1311 344.007 1285.38 315.704 C 1246.99 273.269 1196.11 281.063 1143.82 281.257 C 1142.69 278.163 1143.18 276.273 1143.51 272.987 z" fill="rgb(255,255,255)" transform="translate(0,0)"></path>
<path d="M 730.323 406.841 C 727.53 367.372 735.616 336.367 763.887 307.291 C 804.311 265.715 853.967 272.899 907.098 273.027 C 907.788 276.782 907.794 277.393 907.591 281.228 C 859.895 280.971 809.68 274.045 771.497 310.427 C 747.878 332.783 734.14 369.288 737.533 401.568 C 738.978 409.67 751.536 412.057 748.992 422.451 C 742.038 450.857 702.227 423.91 730.323 406.841 z" fill="rgb(255,255,255)" transform="translate(0,0)"></path>
<path d="M 1119.94 491.125 C 1121.18 491.064 1122.42 491.038 1123.66 491.048 C 1135.56 491.212 1130.1 497.561 1136.51 502.453 C 1139.81 504.966 1149.04 506.712 1153.07 508.381 C 1161.5 511.872 1173.39 520.798 1179.57 527.471 C 1206.19 556.242 1206.62 580.653 1206.12 616.545 C 1210.99 619.557 1215.03 622.596 1216.43 628.491 C 1217.49 632.784 1216.76 637.322 1214.42 641.073 C 1208.43 650.486 1198.82 649.343 1190.73 643.779 C 1182.41 631.892 1186.53 622.301 1198.58 616.045 C 1198.93 588.372 1199.33 568.179 1182.82 544.03 C 1171.57 527.567 1155.98 515.801 1136.04 512.086 C 1131.66 515.366 1125.75 521.357 1120.06 519.379 C 1103.16 513.498 1105.16 497.917 1119.94 491.125 z" fill="rgb(255,255,255)" transform="translate(0,0)"></path>
<path d="M 1444.26 686.053 C 1476.99 686.522 1448.96 739.687 1431.73 705.129 C 1402.74 709.506 1381.69 722.167 1367.56 748.603 C 1358.31 765.895 1358.43 779.167 1358.49 798.023 C 1368.09 802.823 1369.57 806.91 1369.08 817.114 C 1362.99 826.775 1351.99 832.144 1344.04 821.139 C 1341.67 817.85 1340.77 813.729 1341.54 809.75 C 1342.74 803.488 1345.97 801.173 1350.87 797.931 C 1349.94 741.577 1375.06 706.616 1431.81 696.59 C 1435.51 690.458 1437.73 688.705 1444.26 686.053 z" fill="rgb(255,255,255)" transform="translate(0,0)"></path>
<path d="M 1105.16 685.99 C 1122.33 687.651 1128.06 707.627 1111.57 715.036 C 1095.91 722.075 1099.76 704.361 1087.89 705.095 C 1072.62 706.041 1057.71 713.469 1046.92 724.188 C 1025.54 744.869 1028.65 772.083 1028.8 799.137 C 1037.68 804.383 1038.87 806.965 1038.62 817.146 C 1028.56 837.585 1005.62 822.137 1010.62 809.332 C 1015.58 796.644 1022.13 807.677 1021.06 784.338 C 1018.81 735.075 1038.88 703.738 1093.4 696.427 C 1097.06 689.979 1098.34 688.798 1105.16 685.99 z" fill="rgb(255,255,255)" transform="translate(0,0)"></path>
<path d="M 1202.35 812.741 C 1205.68 807.317 1200.78 749.339 1204.1 743.949 C 1207 743.628 1207.37 743.776 1210.09 744.858 L 1210.14 791.229 C 1210.13 825.666 1209.18 848.459 1183.09 875.331 C 1164.11 894.882 1143.79 900.212 1117.68 902.969 C 1100.29 930.02 1073.17 893.496 1101.33 882.92 C 1108.28 880.311 1114.75 889.079 1117.73 894.264 C 1143.28 892.513 1163.54 885.961 1181.2 865.766 C 1194.21 851.096 1201.69 832.341 1202.35 812.741 z" fill="rgb(255,255,255)" transform="translate(0,0)"></path>
<path d="M 1121.88 196.834 C 1133.89 194.093 1145.84 201.629 1148.53 213.645 C 1151.23 225.662 1143.65 237.583 1131.63 240.238 C 1119.66 242.879 1107.81 235.346 1105.13 223.391 C 1102.45 211.436 1109.94 199.561 1121.88 196.834 z" fill="rgb(255,255,255)" transform="translate(0,0)"></path>
<metadata><recraft-signature>{"signed_by": "recraft", "signature_b64": "BnYnlZMkyM0fNa3tI1Ol6QmdqIgZRf4Fzl34FgPnJUHdcNfLPqy+Y86JEKvGRz8sft6VWjHl/O1zmU1eD/zaBg==", "signing_algo": "Ed25519", "generation_timestamp": 1783405102, "identifier": "92b270fd-c7f5-4871-8d56-e1a0084401b5"}</recraft-signature></metadata></svg>